<svg xmlns="http://www.w3.org/2000/svg" xmlns:xlink="http://www.w3.org/1999/xlink" width="749.458" height="456.968" viewBox="0 0 749.458 456.968">
  <defs>
    <linearGradient id="linear-gradient" y1="0.5" x2="1" y2="0.5" gradientUnits="objectBoundingBox">
      <stop offset="0" stop-color="#5971bd"/>
      <stop offset="1" stop-color="#1f227d"/>
    </linearGradient>
    <linearGradient id="linear-gradient-2" x2="1" gradientUnits="objectBoundingBox">
      <stop offset="0" stop-color="#5b89f5"/>
      <stop offset="1" stop-color="#5b65f5"/>
    </linearGradient>
    <linearGradient id="linear-gradient-3" x1="-0.485" y1="0.5" x2="1.013" y2="0.5" xlink:href="#linear-gradient"/>
    <linearGradient id="linear-gradient-4" x1="0.5" y1="0.042" x2="0.5" y2="0.994" gradientUnits="objectBoundingBox">
      <stop offset="0" stop-color="#e3eefe"/>
      <stop offset="0.967" stop-color="#bed6f9"/>
    </linearGradient>
    <linearGradient id="linear-gradient-12" x1="-0.14" y1="0.5" x2="1.14" y2="0.5" xlink:href="#linear-gradient-4"/>
  </defs>
  <g id="Group_20181" data-name="Group 20181" transform="translate(-30.179 -100.843)" opacity="0.8">
    <ellipse id="Ellipse_611" data-name="Ellipse 611" cx="346.475" cy="173.275" rx="346.475" ry="173.275" transform="translate(74.361 211.262)" fill="#549ffe"/>
    <g id="Group_20142" data-name="Group 20142" transform="translate(204.463 100.843)">
      <g id="Group_20140" data-name="Group 20140" transform="translate(163.436)">
        <path id="Path_102446" data-name="Path 102446" d="M608.785,223.482,365.473,101.8c-2.264-1.132-4.311-1.225-5.778-.461l-7.488,3.845,12.864,186c0,4.465,3.62,9.9,8.085,12.129L606.846,437.19l7.655-3.925c1.463-.731,2.368-2.3,2.368-4.533V235.611C616.87,231.146,613.25,225.715,608.785,223.482Z" transform="translate(-349.756 -100.843)" fill="url(#linear-gradient)"/>
        <path id="Path_102447" data-name="Path 102447" d="M601.284,227.188,357.972,105.505c-4.465-2.233-8.085-.424-8.085,4.043V302.669c0,4.465,3.62,9.895,8.085,12.129L601.284,436.48c4.465,2.233,8.085.424,8.085-4.042V239.317C609.37,234.852,605.75,229.421,601.284,227.188Z" transform="translate(-349.887 -100.634)" fill="#d5e5fd"/>
        <path id="Path_102448" data-name="Path 102448" d="M357.67,110.84c-1.331-.665-2.413-.125-2.413,1.205V269.4a4.544,4.544,0,0,0,2.413,3.618L600.982,394.7c1.331.666,2.413.125,2.413-1.206V236.141a4.547,4.547,0,0,0-2.413-3.619Z" transform="translate(-349.584 -100.296)" fill="url(#linear-gradient-2)"/>
      </g>
      <g id="Group_20141" data-name="Group 20141" transform="translate(0 193.251)">
        <path id="Path_102449" data-name="Path 102449" d="M618.168,410.61h-9.93L371.506,296.917a20.356,20.356,0,0,0-16.172,0L205.1,367.4h-9.929V379.35c-.018,1.476,1.092,2.955,3.343,4.081L441.829,505.114a20.364,20.364,0,0,0,16.172,0l156.818-78.427c2.274-1.137,3.375-2.633,3.334-4.124C618.168,422.563,618.168,410.61,618.168,410.61Z" transform="translate(-195.167 -283.141)" fill="url(#linear-gradient-3)"/>
        <path id="Path_102450" data-name="Path 102450" d="M614.818,407.144,371.506,285.462a20.347,20.347,0,0,0-16.172,0L198.517,363.888c-4.465,2.233-4.465,5.853,0,8.086L441.83,493.658a20.353,20.353,0,0,0,16.17,0l156.818-78.426C619.284,413,619.284,409.377,614.818,407.144Z" transform="translate(-195.168 -283.787)" fill="#f2f7fe"/>
        <path id="Path_102451" data-name="Path 102451" d="M506.189,394.747l-15.343-7.674L475.5,394.747l15.342,7.673ZM302.266,355.18l91.047,45.534,15.343-7.673-91.047-45.534Zm178.687,26.945-15.343-7.673L442.08,386.22,416.844,373.6,401.5,381.273l40.577,20.293Zm1.7,24.388-15.343-7.672-15.343,7.673,15.343,7.673Zm48.765.852-15.342-7.672-15.343,7.673,15.342,7.673Zm-17.047-16.714,15.343-7.673L514.376,375.3l-15.343,7.673ZM325.8,343.413l15.342,7.673,15.343-7.673-15.342-7.673Zm182.1,75.722-15.343-7.673-15.342,7.673,15.342,7.673Zm-156.861-63.1,15.342,7.673,15.343-7.673-15.343-7.673Zm-1.7-24.388,15.343,7.673,15.343-7.673-15.343-7.673Zm190.284,71.626,15.343-7.673-15.343-7.673L524.267,395.6Zm-83.892-33.766-15.343-7.673-15.343,7.673,15.342,7.673ZM399.8,356.885l15.344,7.673,15.343-7.673-15.344-7.673Zm7.158,11.768-15.344-7.673-15.343,7.673,15.344,7.673Zm-32.392-24.388,15.342,7.673,15.343-7.673-15.342-7.673ZM489.14,378.031l15.343-7.673-15.342-7.673L473.8,370.358Zm-10.23,65.491,15.343,7.673,15.343-7.673-15.343-7.674Zm-35.125-32.913-15.343,7.673,15.343,7.673,15.342-7.673Zm25.235,12.62L453.676,430.9l15.342,7.673,15.343-7.673Zm-50.471-25.241-15.343,7.673,15.343,7.673,15.343-7.673ZM463.9,365.411l15.343-7.673-15.342-7.673-15.344,7.673Zm-171.53-30.524-15.343,7.673,15.342,7.673,15.343-7.673Zm233.6,85.1,15.343,7.673,15.343-7.673-15.343-7.673ZM502.44,431.753l15.343,7.674,15.343-7.673-15.343-7.674Zm62.4-31.209L549.5,408.218l15.342,7.673,15.343-7.673ZM378.309,307.257l-15.342-7.673-15.343,7.673,15.343,7.673Zm35.126,32.913,15.343-7.673-15.343-7.673L398.093,332.5Zm25.236,12.62,15.343-7.673-15.344-7.673-15.343,7.673ZM388.2,327.551l15.343-7.673L388.2,312.2l-15.343,7.673Zm-56.952,3.242-15.343-7.673-15.343,7.673,15.343,7.673Zm23.53-11.768-15.343-7.673-15.343,7.673,15.343,7.673ZM399.6,418.044,343.317,389.9a14.58,14.58,0,0,0-11.586,0L298.07,406.731c-3.2,1.6-3.2,4.194,0,5.794l56.286,28.148a14.58,14.58,0,0,0,11.586,0L399.6,423.838C402.8,422.239,402.8,419.645,399.6,418.044Z" transform="translate(-190.555 -282.897)" fill="url(#linear-gradient-4)"/>
      </g>
    </g>
    <g id="Group_20169" data-name="Group 20169" transform="translate(282.944 112.515)">
      <g id="Group_20150" data-name="Group 20150" transform="translate(100.135 50.078)">
        <path id="Path_102480" data-name="Path 102480" d="M460.409,339.662l-5.975,2.988-84.2-48.086-5.975-132.276,5.975-2.988,90.176,45.1Z" transform="translate(-364.257 -159.3)" fill="url(#linear-gradient)"/>
        <path id="Path_102481" data-name="Path 102481" d="M454.434,342.491l-90.176-45.1V162.128l90.176,45.1Z" transform="translate(-364.257 -159.14)" fill="#fff"/>
        <path id="Path_102482" data-name="Path 102482" d="M371.8,247.685V173.442l74.242,37.129v74.242Z" transform="translate(-363.832 -158.503)" fill="#d5e5fd"/>
        <g id="Group_20147" data-name="Group 20147" transform="translate(7.611 111.758)">
          <rect id="Rectangle_5665" data-name="Rectangle 5665" width="1.594" height="83.009" transform="translate(0 1.425) rotate(-63.43)" fill="#7ea8c4"/>
          <rect id="Rectangle_5666" data-name="Rectangle 5666" width="1.594" height="83.009" transform="translate(0 5.409) rotate(-63.43)" fill="#7ea8c4"/>
          <rect id="Rectangle_5667" data-name="Rectangle 5667" width="1.594" height="83.009" transform="translate(0 9.392) rotate(-63.43)" fill="#7ea8c4"/>
          <rect id="Rectangle_5668" data-name="Rectangle 5668" width="1.594" height="83.009" transform="translate(0 13.376) rotate(-63.43)" fill="#7ea8c4"/>
          <rect id="Rectangle_5669" data-name="Rectangle 5669" width="1.594" height="56.286" transform="translate(0 17.359) rotate(-63.43)" fill="#7ea8c4"/>
        </g>
        <g id="Group_20148" data-name="Group 20148" transform="translate(18.221 102.431)">
          <path id="Path_102483" data-name="Path 102483" d="M385.969,256.268l1.379,3.484,3.084,1.99L388.2,262.8l.527,3.335-2.758-2.83-2.758.071.527-2.808-2.231-3.291,3.084,1.094Z" transform="translate(-381.506 -256.268)" fill="#fe6b80"/>
          <path id="Path_102484" data-name="Path 102484" d="M396.574,261.571l1.379,3.484,3.084,1.99-2.231,1.059.527,3.335-2.758-2.83-2.758.071.527-2.808-2.231-3.291,3.084,1.094Z" transform="translate(-380.909 -255.969)" fill="#fe6b80"/>
          <path id="Path_102485" data-name="Path 102485" d="M407.179,266.875l1.379,3.484,3.084,1.99-2.231,1.059.527,3.335-2.758-2.83-2.758.071.527-2.808-2.231-3.291,3.084,1.094Z" transform="translate(-380.311 -255.67)" fill="#fe6b80"/>
          <path id="Path_102486" data-name="Path 102486" d="M417.783,272.178l1.379,3.484,3.084,1.99-2.231,1.059.527,3.335-2.758-2.829-2.758.071.527-2.808-2.232-3.291,3.084,1.094Z" transform="translate(-379.714 -255.371)" fill="#fe6b80"/>
          <path id="Path_102487" data-name="Path 102487" d="M428.388,277.482l1.379,3.484,3.084,1.99-2.231,1.059.527,3.335-2.758-2.829-2.758.071.527-2.808-2.232-3.291,3.084,1.094Z" transform="translate(-379.116 -255.073)" fill="#fe6b80"/>
        </g>
        <g id="Group_20149" data-name="Group 20149" transform="translate(18.024 44.27)">
          <path id="Path_102488" data-name="Path 102488" d="M413.031,243.72a31.93,31.93,0,0,1,.373-8.751l-6.176-3.089-6.176-3.089a35.989,35.989,0,0,1,.373,9.125Z" transform="translate(-380.208 -199.654)" fill="#f0beb4"/>
          <path id="Path_102489" data-name="Path 102489" d="M395.556,219.12l.229,2.61a7.52,7.52,0,0,0,2.771,4.808l1.277,1.035-1.141-6.885Z" transform="translate(-380.518 -200.199)" fill="#252a26"/>
          <path id="Path_102490" data-name="Path 102490" d="M418.468,230.548l-.229,2.381a2.156,2.156,0,0,1-2.771,2.037l-1.277-.241,1.141-5.744Z" transform="translate(-379.468 -199.644)" fill="#252a26"/>
          <path id="Path_102491" data-name="Path 102491" d="M407.537,205.254c-6.617-3.308-11.981.138-11.981,7.7,0,3.848,2.307,11.725,3.372,13.923,2.189,4.52,5.13,8.285,8.609,10.026a6.783,6.783,0,0,0,8.609-1.414c1.065-1.132,3.372-6.7,3.372-10.551C419.518,217.377,414.154,208.564,407.537,205.254Z" transform="translate(-380.518 -201.051)" fill="#f0beb4"/>
          <path id="Path_102492" data-name="Path 102492" d="M397.567,222.457a63.287,63.287,0,0,0,.86-14.641,4.665,4.665,0,0,0-.311-1.661,2.4,2.4,0,0,0-1.263-1.334c-.476-.139-1.888-.243-2.122.065C391.6,208.987,393.022,216.916,397.567,222.457Z" transform="translate(-380.659 -201.012)" fill="#252a26"/>
          <path id="Path_102493" data-name="Path 102493" d="M416.606,232.04a75.019,75.019,0,0,1-.86-15.5,2.594,2.594,0,0,1,.311-1.35.881.881,0,0,1,1.263-.07,9.825,9.825,0,0,1,2.122,2.188C422.574,224.541,421.15,231.045,416.606,232.04Z" transform="translate(-379.386 -200.437)" fill="#252a26"/>
          <path id="Path_102494" data-name="Path 102494" d="M393.062,214.758a5.365,5.365,0,0,0,.428,2.419,16.28,16.28,0,0,0,2.4,4.285,4.129,4.129,0,0,0,.849.879c.318.221.688.306.86.118s.1-.621.006-1c-.416-1.718-.535-4.342-1.332-6.052C395.333,213.39,393.262,213.193,393.062,214.758Z" transform="translate(-380.66 -200.503)" fill="#f0beb4"/>
          <path id="Path_102495" data-name="Path 102495" d="M421.068,228.74a3.1,3.1,0,0,1-.428,1.99,4.034,4.034,0,0,1-2.4,1.883,1.41,1.41,0,0,1-.849.03,1.513,1.513,0,0,1-.86-.742,1.276,1.276,0,0,1-.006-1.006c.416-1.3.534-3.807,1.332-4.72C418.8,225.1,420.868,226.973,421.068,228.74Z" transform="translate(-379.342 -199.82)" fill="#f0beb4"/>
          <path id="Path_102496" data-name="Path 102496" d="M398.357,209.276c4.327-1.541,10.214,3.868,12.823,6.508,4.294,4.343,9.263,4.63,10,.293-6.6-1.55-4.7-8.387-14.755-13.419-3.439-1.72-7.145-1.982-9.392-.4a2.846,2.846,0,0,0-.692,2.736C396.508,205.8,397.026,206.638,398.357,209.276Z" transform="translate(-380.48 -201.208)" fill="#303631"/>
          <path id="Path_102497" data-name="Path 102497" d="M404.573,228.81a5.424,5.424,0,0,0,2.456,3.039,1.689,1.689,0,0,0,2.456-.582Z" transform="translate(-380.01 -199.653)" fill="#fff"/>
          <path id="Path_102498" data-name="Path 102498" d="M401.931,217.561c-.749-.375-1.356-.072-1.356.678a2.553,2.553,0,0,0,1.356,2.035c.749.375,1.356.071,1.356-.678A2.551,2.551,0,0,0,401.931,217.561Z" transform="translate(-380.235 -200.296)" fill="#1a1a1a"/>
          <path id="Path_102499" data-name="Path 102499" d="M412.009,222.6c-.749-.375-1.356-.071-1.356.678a2.553,2.553,0,0,0,1.356,2.035c.749.375,1.356.071,1.356-.678A2.553,2.553,0,0,0,412.009,222.6Z" transform="translate(-379.667 -200.012)" fill="#1a1a1a"/>
          <path id="Path_102500" data-name="Path 102500" d="M403.611,217.123l-3.262-1.631a1.2,1.2,0,0,1-.637-.956c0-.353.285-.494.637-.319l3.262,1.631a1.2,1.2,0,0,1,.637.956C404.248,217.157,403.963,217.3,403.611,217.123Z" transform="translate(-380.284 -200.48)" fill="#252a26"/>
          <path id="Path_102501" data-name="Path 102501" d="M413.689,222.163l-3.262-1.631a1.2,1.2,0,0,1-.637-.956c0-.353.285-.494.637-.319l3.262,1.631a1.2,1.2,0,0,1,.637.956C414.326,222.2,414.041,222.339,413.689,222.163Z" transform="translate(-379.716 -200.196)" fill="#252a26"/>
          <path id="Path_102502" data-name="Path 102502" d="M408.176,228.675l-1.832-.916a1.2,1.2,0,0,1-.638-.957c0-.352.286-.494.638-.318l1.194.6v-5.927c0-.353.285-.5.638-.319a1.2,1.2,0,0,1,.637.956v6.565C408.813,228.708,408.527,228.851,408.176,228.675Z" transform="translate(-379.946 -200.107)" fill="#de816f"/>
          <path id="Path_102503" data-name="Path 102503" d="M426.312,252.07c-2.513-2.272-9.769-6.777-12.169-8.648l-11.607-5.8c-2.4-.53-9.566-3.238-12.079-3.481-3.022-.292-5.6.85-6.712,3.169L381.32,249.23l54.128,27.07-2.424-14.349A24.463,24.463,0,0,0,426.312,252.07Z" transform="translate(-381.32 -199.356)" fill="#fff"/>
          <path id="Path_102504" data-name="Path 102504" d="M390.456,234.137c-3.022-.292-5.6.85-6.712,3.169L381.32,249.23l19.856,9.931-5.11-23.543A35.429,35.429,0,0,0,390.456,234.137Z" transform="translate(-381.32 -199.356)" fill="#0071bc"/>
          <path id="Path_102505" data-name="Path 102505" d="M424.484,251.331a24.463,24.463,0,0,1,6.712,9.881l2.424,14.349-19.856-9.93,5.11-18.432A61.745,61.745,0,0,1,424.484,251.331Z" transform="translate(-379.492 -198.617)" fill="#0071bc"/>
          <path id="Path_102506" data-name="Path 102506" d="M407.93,244.808l-1.63-.815c-.743,1.628-1.428,11.33-2.45,16.582l6.529,3.265C409.359,257.567,408.672,247.179,407.93,244.808Z" transform="translate(-380.051 -198.798)" fill="#00587e"/>
          <path id="Path_102507" data-name="Path 102507" d="M410.448,244.7l-2.35,1.175c-.541.271-1.419-.168-1.96-.98l-2.35-3.525,3.285-1.2Z" transform="translate(-380.054 -199.013)" fill="#00587e"/>
          <path id="Path_102508" data-name="Path 102508" d="M401.573,235.079l5.785,5.408-3.885,4.657-3.947-8.128Z" transform="translate(-380.294 -199.3)" fill="#fff"/>
          <path id="Path_102509" data-name="Path 102509" d="M412.726,240.577l-5.785-.378,3.885,8.543,3.947-4.18Z" transform="translate(-379.876 -199.012)" fill="#fff"/>
        </g>
      </g>
      <g id="Group_20154" data-name="Group 20154" transform="translate(400.541 200.314)">
        <path id="Path_102510" data-name="Path 102510" d="M744.792,481.885l-5.975,2.988-84.2-48.086L648.64,304.51l5.975-2.988,90.176,45.1Z" transform="translate(-648.64 -301.522)" fill="url(#linear-gradient)"/>
        <path id="Path_102511" data-name="Path 102511" d="M738.817,484.713l-90.176-45.1V304.351l90.176,45.1Z" transform="translate(-648.64 -301.363)" fill="#fff"/>
        <path id="Path_102512" data-name="Path 102512" d="M656.182,389.907V315.665l74.242,37.129v74.242Z" transform="translate(-648.215 -300.725)" fill="#d5e5fd"/>
        <g id="Group_20151" data-name="Group 20151" transform="translate(7.611 111.757)">
          <rect id="Rectangle_5670" data-name="Rectangle 5670" width="1.594" height="83.009" transform="translate(0 1.425) rotate(-63.43)" fill="#7ea8c4"/>
          <rect id="Rectangle_5671" data-name="Rectangle 5671" width="1.594" height="83.009" transform="translate(0 5.409) rotate(-63.43)" fill="#7ea8c4"/>
          <rect id="Rectangle_5672" data-name="Rectangle 5672" width="1.594" height="83.009" transform="translate(0 9.392) rotate(-63.43)" fill="#7ea8c4"/>
          <rect id="Rectangle_5673" data-name="Rectangle 5673" width="1.594" height="83.009" transform="translate(0 13.376) rotate(-63.43)" fill="#7ea8c4"/>
          <rect id="Rectangle_5674" data-name="Rectangle 5674" width="1.594" height="56.286" transform="translate(0 17.359) rotate(-63.43)" fill="#7ea8c4"/>
        </g>
        <g id="Group_20152" data-name="Group 20152" transform="translate(18.221 102.431)">
          <path id="Path_102513" data-name="Path 102513" d="M670.352,398.49l1.379,3.484,3.084,1.99-2.232,1.059.527,3.335-2.758-2.829-2.758.071.527-2.808L665.89,399.5l3.084,1.094Z" transform="translate(-665.89 -398.49)" fill="#fe6b80"/>
          <path id="Path_102514" data-name="Path 102514" d="M680.957,403.794l1.379,3.484,3.084,1.99-2.232,1.059.527,3.335-2.758-2.829-2.758.071.527-2.808-2.231-3.291,3.084,1.094Z" transform="translate(-665.292 -398.191)" fill="#bfd5f7"/>
          <path id="Path_102515" data-name="Path 102515" d="M691.562,409.1l1.379,3.484,3.084,1.99-2.231,1.059.527,3.335-2.758-2.829-2.758.071.527-2.808-2.231-3.291,3.084,1.094Z" transform="translate(-664.695 -397.893)" fill="#bfd5f7"/>
          <path id="Path_102516" data-name="Path 102516" d="M702.167,414.4l1.379,3.484,3.084,1.99-2.231,1.059.527,3.335-2.758-2.83-2.758.071.527-2.808-2.231-3.291,3.084,1.094Z" transform="translate(-664.097 -397.594)" fill="#bfd5f7"/>
          <path id="Path_102517" data-name="Path 102517" d="M712.771,419.7l1.379,3.484,3.084,1.99L715,426.238l.527,3.335-2.758-2.83-2.758.071.527-2.808-2.231-3.291,3.084,1.094Z" transform="translate(-663.5 -397.295)" fill="#bfd5f7"/>
        </g>
        <g id="Group_20153" data-name="Group 20153" transform="translate(18.024 40.154)">
          <path id="Path_102518" data-name="Path 102518" d="M679.939,361.331l.23,2.609a7.513,7.513,0,0,0,2.771,4.808l1.276,1.035-1.141-6.885Z" transform="translate(-664.901 -338.306)" fill="#7989a3"/>
          <path id="Path_102519" data-name="Path 102519" d="M702.851,372.759l-.229,2.381a2.157,2.157,0,0,1-2.771,2.037l-1.277-.242,1.141-5.744Z" transform="translate(-663.851 -337.751)" fill="#7989a3"/>
          <path id="Path_102520" data-name="Path 102520" d="M710.695,394.28c-2.513-2.271-9.769-6.776-12.169-8.647l-11.606-5.8c-2.4-.53-9.567-3.238-12.08-3.48-.126-.013-.251-.022-.375-.03a6.185,6.185,0,0,0-6.771,5.333l-1.99,9.789,54.129,27.07-1.99-11.779a22.648,22.648,0,0,0-6.771-12.106C710.946,394.509,710.821,394.394,710.695,394.28Z" transform="translate(-665.703 -337.462)" fill="#7ed5de"/>
          <path id="Path_102521" data-name="Path 102521" d="M681.344,399.576l21.255,10.63,1.518-20.251c-2.542-1.726-5.13-3.428-6.387-4.407l-11.606-5.8c-1.251-.276-3.793-1.143-6.3-1.944Z" transform="translate(-664.907 -337.378)" fill="#f1f2f2"/>
          <path id="Path_102522" data-name="Path 102522" d="M697.525,382.294a32.326,32.326,0,0,1,.511-5.114L685.684,371a42.873,42.873,0,0,1,.511,5.629c.04,2.1-1.441,3.164-3.492,2.5l-1.69-.548c.662,3.1,5.286,7.565,10.892,10.369s10.219,2.967,10.89.532c-.607-.409-1.2-.81-1.771-1.194A7.868,7.868,0,0,1,697.525,382.294Z" transform="translate(-664.84 -337.761)" fill="#f0beb4"/>
          <path id="Path_102523" data-name="Path 102523" d="M691.92,347.465c-6.617-3.31-11.981.138-11.981,7.7,0,3.847,2.308,11.725,3.372,13.922,2.189,4.52,5.13,8.286,8.609,10.026a6.785,6.785,0,0,0,8.61-1.413c1.064-1.133,3.371-6.7,3.371-10.551C703.9,359.587,698.537,350.774,691.92,347.465Z" transform="translate(-664.901 -339.158)" fill="#f0beb4"/>
          <path id="Path_102524" data-name="Path 102524" d="M701.512,372.212l-3.691,4.128a10.89,10.89,0,0,0-3.8-4.339l-4.316-2.158a3.423,3.423,0,0,0-3.8.535l-3.69-7.819-1.2-1.264a44.68,44.68,0,0,0,2.238,6.943c2.189,4.52,5.13,8.286,8.609,10.026a6.785,6.785,0,0,0,8.61-1.413,16.164,16.164,0,0,0,2.237-4.706Z" transform="translate(-664.84 -338.308)" fill="#445d7b"/>
          <path id="Path_102525" data-name="Path 102525" d="M692.009,349.065c-8.843-4.422-16.9-1.456-10.58,13.314l.883.974c-.924-3.806.026-8.025,1.185-8.83,2.509-1.742,6.154.32,8.512,1.5s6,2.763,8.511,7.014c1.16,1.964,2.109,7.135,1.186,10.016l.883-.091C708.906,364.51,700.85,353.487,692.009,349.065Z" transform="translate(-664.944 -339.103)" fill="#7989a3"/>
          <path id="Path_102526" data-name="Path 102526" d="M697.421,352.337c3.409-1.1,9.087,4.212,10.386,8.356a17.823,17.823,0,0,1-3.372-1.686c2.439,1.828,3.772,5.96,1.7,7.717a13.287,13.287,0,0,0-2.807-4.568c1.547,2.237,2.292,5.836.678,7.205a16.788,16.788,0,0,1-2.022-4.355c.278,1.387.278,2.959-.943,3.135A56.031,56.031,0,0,1,697.421,352.337Z" transform="translate(-663.916 -338.821)" fill="#7989a3"/>
          <path id="Path_102527" data-name="Path 102527" d="M698.654,353.225c.239-8.18-12.26-15.287-21.813-13.378,2.529.568,6.123,1.469,7.556,2.425-4.075-1.382-7.177-.783-8.908,1.516A8.826,8.826,0,0,0,680.5,346.3a3.488,3.488,0,0,0-3.822,2.627c3.364,2.129,5.115,1.7,6.209.717a7.187,7.187,0,0,0-2.866,5.253c2.269-1.432,7.428-.531,10.508.718-1.97-.209-4.717-.269-6.137.751,4.824,2.89,9.541,4.712,12.348,3.071a15.956,15.956,0,0,0,3.343,5.493C701.7,363.465,703.072,358,698.654,353.225Z" transform="translate(-665.152 -339.534)" fill="#7989a3"/>
          <path id="Path_102528" data-name="Path 102528" d="M677.445,356.969a5.375,5.375,0,0,0,.428,2.418,16.3,16.3,0,0,0,2.4,4.286,4.151,4.151,0,0,0,.849.879c.318.22.688.306.86.118s.1-.622.006-1c-.416-1.717-.534-4.34-1.332-6.052C679.716,355.6,677.645,355.4,677.445,356.969Z" transform="translate(-665.043 -338.61)" fill="#f0beb4"/>
          <path id="Path_102529" data-name="Path 102529" d="M705.451,370.95a3.1,3.1,0,0,1-.428,1.991,4.031,4.031,0,0,1-2.4,1.883,1.407,1.407,0,0,1-.848.029,1.511,1.511,0,0,1-.861-.742,1.275,1.275,0,0,1-.005-1.006c.416-1.3.533-3.807,1.332-4.719C703.18,367.31,705.251,369.184,705.451,370.95Z" transform="translate(-663.725 -337.926)" fill="#f0beb4"/>
          <path id="Path_102530" data-name="Path 102530" d="M688.956,371.021a5.427,5.427,0,0,0,2.456,3.039,1.691,1.691,0,0,0,2.457-.582Z" transform="translate(-664.393 -337.76)" fill="#fff"/>
          <path id="Path_102531" data-name="Path 102531" d="M686.314,359.771c-.749-.374-1.356-.071-1.356.678a2.555,2.555,0,0,0,1.356,2.036c.75.374,1.356.071,1.356-.678A2.551,2.551,0,0,0,686.314,359.771Z" transform="translate(-664.618 -338.403)" fill="#1a1a1a"/>
          <path id="Path_102532" data-name="Path 102532" d="M696.392,364.811c-.749-.374-1.356-.071-1.356.678a2.553,2.553,0,0,0,1.356,2.036c.749.374,1.356.071,1.356-.678A2.555,2.555,0,0,0,696.392,364.811Z" transform="translate(-664.05 -338.119)" fill="#1a1a1a"/>
          <path id="Path_102533" data-name="Path 102533" d="M687.994,359.333l-3.261-1.631a1.2,1.2,0,0,1-.638-.956c0-.352.285-.494.638-.318l3.261,1.631a1.2,1.2,0,0,1,.638.956C688.632,359.367,688.346,359.509,687.994,359.333Z" transform="translate(-664.667 -338.587)" fill="#445d7b"/>
          <path id="Path_102534" data-name="Path 102534" d="M698.072,364.374l-3.262-1.632a1.2,1.2,0,0,1-.637-.956c0-.352.285-.494.637-.318l3.262,1.631a1.2,1.2,0,0,1,.637.956C698.709,364.407,698.424,364.549,698.072,364.374Z" transform="translate(-664.099 -338.303)" fill="#445d7b"/>
          <path id="Path_102535" data-name="Path 102535" d="M692.559,370.885l-1.832-.916a1.2,1.2,0,0,1-.637-.956c0-.352.285-.494.637-.319l1.195.6v-5.928c0-.352.285-.494.637-.319a1.2,1.2,0,0,1,.637.957v6.565C693.2,370.919,692.91,371.062,692.559,370.885Z" transform="translate(-664.329 -338.214)" fill="#de816f"/>
        </g>
      </g>
      <g id="Group_20158" data-name="Group 20158">
        <path id="Path_102536" data-name="Path 102536" d="M365.614,292.255l-5.975,2.988-84.2-48.086L269.463,114.88l5.975-2.988,90.176,45.1Z" transform="translate(-269.463 -111.892)" fill="url(#linear-gradient)"/>
        <path id="Path_102537" data-name="Path 102537" d="M359.639,295.084l-90.176-45.1V114.721l90.176,45.1Z" transform="translate(-269.463 -111.733)" fill="#fff"/>
        <path id="Path_102538" data-name="Path 102538" d="M277,200.277V126.035l74.242,37.129v74.242Z" transform="translate(-269.038 -111.095)" fill="#d5e5fd"/>
        <g id="Group_20155" data-name="Group 20155" transform="translate(7.61 111.758)">
          <rect id="Rectangle_5675" data-name="Rectangle 5675" width="1.594" height="83.009" transform="translate(0 1.425) rotate(-63.43)" fill="#7ea8c4"/>
          <rect id="Rectangle_5676" data-name="Rectangle 5676" width="1.594" height="83.009" transform="translate(0 5.409) rotate(-63.43)" fill="#7ea8c4"/>
          <rect id="Rectangle_5677" data-name="Rectangle 5677" width="1.594" height="83.009" transform="translate(0 9.392) rotate(-63.43)" fill="#7ea8c4"/>
          <rect id="Rectangle_5678" data-name="Rectangle 5678" width="1.594" height="83.009" transform="translate(0 13.376) rotate(-63.43)" fill="#7ea8c4"/>
          <rect id="Rectangle_5679" data-name="Rectangle 5679" width="1.594" height="56.286" transform="translate(0 17.359) rotate(-63.43)" fill="#7ea8c4"/>
        </g>
        <g id="Group_20156" data-name="Group 20156" transform="translate(18.221 102.431)">
          <path id="Path_102539" data-name="Path 102539" d="M291.175,208.86l1.379,3.484,3.084,1.99-2.232,1.059.527,3.335-2.758-2.83-2.758.071.527-2.808-2.231-3.291,3.084,1.094Z" transform="translate(-286.712 -208.86)" fill="#fe6b80"/>
          <path id="Path_102540" data-name="Path 102540" d="M301.779,214.164l1.379,3.484,3.084,1.99-2.232,1.059.527,3.335-2.758-2.83-2.758.071.527-2.808-2.231-3.291,3.084,1.094Z" transform="translate(-286.114 -208.561)" fill="#fe6b80"/>
          <path id="Path_102541" data-name="Path 102541" d="M312.384,219.467l1.379,3.484,3.084,1.99L314.616,226l.527,3.335-2.758-2.83-2.758.071.527-2.808-2.231-3.291,3.084,1.094Z" transform="translate(-285.517 -208.263)" fill="#fe6b80"/>
          <path id="Path_102542" data-name="Path 102542" d="M322.989,224.771l1.379,3.484,3.084,1.99L325.22,231.3l.527,3.335-2.758-2.829-2.758.071.527-2.808-2.231-3.291,3.084,1.094Z" transform="translate(-284.919 -207.964)" fill="#fe6b80"/>
          <path id="Path_102543" data-name="Path 102543" d="M333.594,230.074l1.379,3.484,3.084,1.99-2.231,1.059.527,3.335-2.758-2.83-2.758.071.527-2.808-2.231-3.291,3.084,1.094Z" transform="translate(-284.322 -207.665)" fill="#bfd5f7"/>
        </g>
        <g id="Group_20157" data-name="Group 20157" transform="translate(24.52 43.56)">
          <path id="Path_102544" data-name="Path 102544" d="M328.677,208.211c.8-6.776-2.547-33.569-3.65-36.682-2.651-7.485-6.936-13.266-12.078-15.837s-9.428-1.077-12.079,3.755c-1.1,2.01-4.447,25.458-3.65,33.032Z" transform="translate(-292.426 -153.054)" fill="#fbc926"/>
          <path id="Path_102545" data-name="Path 102545" d="M326.868,202.459c-1.91-1.97-6.793-5.288-8.618-6.871l-10.083-5.042c-1.824-.242-6.639-1.774-8.549-1.714a5.549,5.549,0,0,0-5.1,3.974l-1.842,12.216,41.137,20.573-1.843-14.059A21.325,21.325,0,0,0,326.868,202.459Z" transform="translate(-292.675 -151.117)" fill="#def8fa"/>
          <path id="Path_102546" data-name="Path 102546" d="M317.613,192.348a40.991,40.991,0,0,1,.3-5.169l-10.646-5.324a50.158,50.158,0,0,1,.313,5.473,2.623,2.623,0,0,1-3.52,2.823l-.648-.158,9.222,18.263,9.22-9.033c-.24-.181-.479-.36-.715-.537A8.62,8.62,0,0,1,317.613,192.348Z" transform="translate(-292.07 -151.51)" fill="#f09e8e"/>
          <path id="Path_102547" data-name="Path 102547" d="M312.743,157.913c-6.617-3.31-11.981.138-11.981,7.7,0,3.847,2.307,11.725,3.371,13.922,2.189,4.521,5.131,8.286,8.61,10.026a6.784,6.784,0,0,0,8.609-1.413c1.064-1.133,3.371-6.7,3.371-10.551C324.723,170.035,319.359,161.222,312.743,157.913Z" transform="translate(-292.219 -152.93)" fill="#f09e8e"/>
          <path id="Path_102548" data-name="Path 102548" d="M309.778,181.469a5.424,5.424,0,0,0,2.457,3.039,1.689,1.689,0,0,0,2.456-.582Z" transform="translate(-291.711 -151.532)" fill="#fff"/>
          <path id="Path_102549" data-name="Path 102549" d="M307.137,170.219c-.75-.374-1.357-.071-1.357.678a2.554,2.554,0,0,0,1.357,2.036c.749.374,1.356.071,1.356-.678A2.553,2.553,0,0,0,307.137,170.219Z" transform="translate(-291.937 -152.175)" fill="#1a1a1a"/>
          <path id="Path_102550" data-name="Path 102550" d="M317.215,175.259c-.75-.374-1.357-.071-1.357.678a2.554,2.554,0,0,0,1.357,2.036c.749.374,1.356.071,1.356-.678A2.553,2.553,0,0,0,317.215,175.259Z" transform="translate(-291.369 -151.891)" fill="#1a1a1a"/>
          <path id="Path_102551" data-name="Path 102551" d="M308.816,169.782l-3.261-1.632a1.2,1.2,0,0,1-.638-.956c0-.352.286-.494.638-.318l3.261,1.631a1.2,1.2,0,0,1,.638.956C309.454,169.815,309.169,169.957,308.816,169.782Z" transform="translate(-291.985 -152.358)" fill="#8c6239"/>
          <path id="Path_102552" data-name="Path 102552" d="M318.894,174.822l-3.261-1.632a1.2,1.2,0,0,1-.638-.956c0-.352.285-.494.638-.318l3.261,1.631a1.2,1.2,0,0,1,.638.956C319.532,174.855,319.246,175,318.894,174.822Z" transform="translate(-291.417 -152.074)" fill="#8c6239"/>
          <path id="Path_102553" data-name="Path 102553" d="M313.381,180.409l-1.832-.916a1.2,1.2,0,0,1-.637-.956c0-.353.285-.5.637-.319l1.195.6v-3.037c0-.353.285-.5.637-.319a1.2,1.2,0,0,1,.638.956v3.675C314.019,180.442,313.732,180.584,313.381,180.409Z" transform="translate(-291.647 -151.875)" fill="#de816f"/>
          <path id="Path_102554" data-name="Path 102554" d="M298.811,169l1.017-9.059c.735-6.552,6.712-8.726,13.666-4.971,6.661,3.6,12.08,11.493,12.639,18.415l.779,9.637c-6.547-5.71-10.71-11.074-12.391-16.077C310.971,169.794,305.429,170.088,298.811,169Z" transform="translate(-292.329 -153.129)" fill="#fdc957"/>
        </g>
      </g>
      <g id="Group_20163" data-name="Group 20163" transform="translate(300.406 150.235)">
        <path id="Path_102555" data-name="Path 102555" d="M650,434.477l-5.975,2.988-84.2-48.086L553.846,257.1l5.975-2.988L650,299.212Z" transform="translate(-553.846 -254.114)" fill="url(#linear-gradient)"/>
        <path id="Path_102556" data-name="Path 102556" d="M644.022,437.306l-90.176-45.1V256.943l90.176,45.1Z" transform="translate(-553.846 -253.955)" fill="#fff"/>
        <path id="Path_102557" data-name="Path 102557" d="M561.388,342.5V268.257l74.242,37.129v74.242Z" transform="translate(-553.421 -253.318)" fill="#d5e5fd"/>
        <g id="Group_20159" data-name="Group 20159" transform="translate(7.611 111.757)">
          <rect id="Rectangle_5680" data-name="Rectangle 5680" width="1.594" height="83.009" transform="translate(0 1.425) rotate(-63.43)" fill="#7ea8c4"/>
          <rect id="Rectangle_5681" data-name="Rectangle 5681" width="1.594" height="83.009" transform="translate(0 5.409) rotate(-63.43)" fill="#7ea8c4"/>
          <rect id="Rectangle_5682" data-name="Rectangle 5682" width="1.594" height="83.009" transform="translate(0 9.392) rotate(-63.43)" fill="#7ea8c4"/>
          <rect id="Rectangle_5683" data-name="Rectangle 5683" width="1.594" height="83.009" transform="translate(0 13.376) rotate(-63.43)" fill="#7ea8c4"/>
          <rect id="Rectangle_5684" data-name="Rectangle 5684" width="1.594" height="56.286" transform="translate(0 17.359) rotate(-63.43)" fill="#7ea8c4"/>
        </g>
        <g id="Group_20160" data-name="Group 20160" transform="translate(18.221 102.431)">
          <path id="Path_102558" data-name="Path 102558" d="M575.558,351.083l1.379,3.484,3.084,1.99-2.231,1.059.527,3.335-2.758-2.829-2.758.071.527-2.808-2.232-3.291,3.084,1.094Z" transform="translate(-571.095 -351.083)" fill="#fe6b80"/>
          <path id="Path_102559" data-name="Path 102559" d="M586.163,356.386l1.379,3.484,3.084,1.99-2.231,1.059.527,3.335-2.758-2.829-2.758.071.527-2.808L581.7,357.4l3.084,1.094Z" transform="translate(-570.498 -350.784)" fill="#fe6b80"/>
          <path id="Path_102560" data-name="Path 102560" d="M596.767,361.69l1.379,3.484,3.084,1.99L599,368.223l.527,3.335-2.758-2.829-2.758.071.527-2.808L592.3,362.7l3.084,1.094Z" transform="translate(-569.9 -350.485)" fill="#fe6b80"/>
          <path id="Path_102561" data-name="Path 102561" d="M607.372,366.993l1.379,3.484,3.084,1.99-2.232,1.059.527,3.335-2.758-2.83-2.758.071.527-2.808L602.909,368l3.084,1.094Z" transform="translate(-569.303 -350.186)" fill="#bfd5f7"/>
          <path id="Path_102562" data-name="Path 102562" d="M617.977,372.3l1.379,3.484,3.084,1.99-2.231,1.059.527,3.335-2.758-2.83-2.758.071.527-2.808-2.231-3.291L616.6,374.4Z" transform="translate(-568.705 -349.887)" fill="#bfd5f7"/>
        </g>
        <g id="Group_20162" data-name="Group 20162" transform="translate(24.52 44.193)">
          <path id="Path_102563" data-name="Path 102563" d="M611.252,344.67c-1.911-1.969-6.794-5.288-8.618-6.87l-10.084-5.043c-1.823-.242-6.639-1.774-8.549-1.714a5.55,5.55,0,0,0-5.1,3.974l-1.842,12.217L618.2,367.8l-1.842-14.058A21.345,21.345,0,0,0,611.252,344.67Z" transform="translate(-577.058 -293.974)" fill="#df56fc"/>
          <path id="Path_102564" data-name="Path 102564" d="M612.644,322.8c0-14.011-7.412-20.32-15.166-24.34-.025-.015-.051-.026-.076-.039l-.075-.039c-7.754-3.732-15.166-4.838-15.166,9.173,0,3.666,1.072,8.693-1.137,16.769,0,2.386,32.755,18.767,32.755,16.382C611.571,330.42,612.644,326.467,612.644,322.8Z" transform="translate(-576.834 -295.951)" fill="#2e1708"/>
          <path id="Path_102565" data-name="Path 102565" d="M583.647,310.127a5.364,5.364,0,0,0,.428,2.418,16.282,16.282,0,0,0,2.4,4.285,4.108,4.108,0,0,0,.849.879c.318.221.687.306.86.118s.1-.621.005-1c-.415-1.718-.534-4.342-1.331-6.052C585.918,308.758,583.847,308.561,583.647,310.127Z" transform="translate(-576.688 -295.211)" fill="#f0beb4"/>
          <path id="Path_102566" data-name="Path 102566" d="M609.661,323.112a3.1,3.1,0,0,1-.428,1.99,4.034,4.034,0,0,1-2.4,1.883,1.419,1.419,0,0,1-.849.03,1.517,1.517,0,0,1-.86-.742,1.273,1.273,0,0,1-.006-1.007c.416-1.3.535-3.806,1.332-4.719C607.39,319.471,609.461,321.345,609.661,323.112Z" transform="translate(-575.483 -294.583)" fill="#f0beb4"/>
          <path id="Path_102567" data-name="Path 102567" d="M602,334.56a41,41,0,0,1,.3-5.17l-10.646-5.324a49.9,49.9,0,0,1,.313,5.474,2.622,2.622,0,0,1-3.519,2.823l-.649-.159c.941,3.031,4.712,6.83,9.222,9.086s8.274,2.228,9.22.146l-.715-.538A8.621,8.621,0,0,1,602,334.56Z" transform="translate(-576.453 -294.367)" fill="#f0beb4"/>
          <path id="Path_102568" data-name="Path 102568" d="M597.168,300.145c-6.616-3.308-11.98.139-11.98,7.7,0,3.848,2.307,11.726,3.371,13.923,2.189,4.52,5.13,8.285,8.609,10.026a6.785,6.785,0,0,0,8.61-1.413c1.064-1.133,3.371-6.7,3.371-10.551C609.149,312.268,603.785,303.455,597.168,300.145Z" transform="translate(-576.6 -295.785)" fill="#f0beb4"/>
          <path id="Path_102569" data-name="Path 102569" d="M597.764,322.62l-1.831-.916a1.2,1.2,0,0,1-.638-.956c0-.352.285-.494.638-.319l1.194.6v-3.038c0-.352.285-.494.637-.319a1.2,1.2,0,0,1,.638.957V322.3C598.4,322.654,598.116,322.8,597.764,322.62Z" transform="translate(-576.03 -294.731)" fill="#de816f"/>
          <path id="Path_102570" data-name="Path 102570" d="M610.156,322.338v-1.456c0-8.165-5.792-17.681-12.937-21.255s-12.937.15-12.937,8.316c0,.057,0,1.492,0,1.551C584.277,307.344,610.148,320.188,610.156,322.338Z" transform="translate(-576.651 -295.82)" fill="#42210b"/>
          <path id="Path_102571" data-name="Path 102571" d="M597.654,314.4l-.408-7.472,3.164,9.064,1.061.531-.711-5.955,3.221,8.651Z" transform="translate(-575.921 -295.332)" fill="#f0beb4"/>
          <g id="Group_20161" data-name="Group 20161" transform="translate(8.21 13.94)">
            <path id="Path_102572" data-name="Path 102572" d="M591.729,318.573c-2.653-1.328-4.813-4.567-4.813-7.221v-.661c0-1.378,1.121-1.937,2.5-1.249l4.631,2.317a4.706,4.706,0,0,1,2.5,3.747v.661C596.542,318.82,594.383,319.9,591.729,318.573Zm-2.315-7.856c-.674-.337-1.223-.063-1.223.612v.661a6.669,6.669,0,0,0,3.539,5.308c1.951.976,3.539.182,3.539-1.769v-.661a2.308,2.308,0,0,0-1.223-1.835Z" transform="translate(-584.712 -309.147)" fill="#fff"/>
            <path id="Path_102573" data-name="Path 102573" d="M601.844,323.631c-2.655-1.328-4.814-4.567-4.814-7.22v-.661c0-1.377,1.121-1.938,2.5-1.25l4.63,2.317a4.706,4.706,0,0,1,2.5,3.747v.661C606.656,323.879,604.5,324.959,601.844,323.631Zm-2.315-7.856c-.675-.337-1.223-.063-1.223.612v.661a6.667,6.667,0,0,0,3.539,5.308c1.95.976,3.538.183,3.538-1.768v-.661a2.306,2.306,0,0,0-1.223-1.836Z" transform="translate(-584.143 -308.862)" fill="#fff"/>
            <path id="Path_102574" data-name="Path 102574" d="M597.79,317.054a1.234,1.234,0,0,1-.63-.853,2.05,2.05,0,0,0-1.071-.536c-.049.281-.312.382-.631.223a1.2,1.2,0,0,1-.637-.956c0-.75.742-.9,1.8-.372a2.917,2.917,0,0,1,1.8,2.176C598.428,317.088,598.143,317.23,597.79,317.054Z" transform="translate(-584.267 -308.86)" fill="#fff"/>
            <path id="Path_102575" data-name="Path 102575" d="M587.476,311.579l-2.009-1a1.2,1.2,0,0,1-.637-.956c0-.352.285-.494.637-.319l2.009,1a1.2,1.2,0,0,1,.637.956C588.113,311.612,587.828,311.755,587.476,311.579Z" transform="translate(-584.83 -309.143)" fill="#fff"/>
            <path id="Path_102576" data-name="Path 102576" d="M607.654,321.67l-2.009-1a1.2,1.2,0,0,1-.637-.956c0-.352.285-.494.637-.319l2.009,1a1.2,1.2,0,0,1,.637.956C608.291,321.7,608.006,321.846,607.654,321.67Z" transform="translate(-583.693 -308.574)" fill="#fff"/>
          </g>
          <path id="Path_102577" data-name="Path 102577" d="M594.161,323.681a5.43,5.43,0,0,0,2.457,3.038,1.689,1.689,0,0,0,2.456-.582Z" transform="translate(-576.094 -294.388)" fill="#fff"/>
          <path id="Path_102578" data-name="Path 102578" d="M591.52,312.431c-.749-.375-1.356-.072-1.356.678a2.553,2.553,0,0,0,1.356,2.035c.749.375,1.356.071,1.356-.678A2.552,2.552,0,0,0,591.52,312.431Z" transform="translate(-576.32 -295.031)" fill="#1a1a1a"/>
          <path id="Path_102579" data-name="Path 102579" d="M601.6,317.471c-.749-.375-1.356-.071-1.356.678a2.553,2.553,0,0,0,1.356,2.034c.749.375,1.356.071,1.356-.678A2.553,2.553,0,0,0,601.6,317.471Z" transform="translate(-575.752 -294.747)" fill="#1a1a1a"/>
        </g>
      </g>
      <g id="Group_20168" data-name="Group 20168" transform="translate(200.27 100.157)">
        <path id="Path_102580" data-name="Path 102580" d="M555.2,387.07l-5.975,2.988-84.2-48.086L459.052,209.7l5.975-2.988,90.177,45.1Z" transform="translate(-459.052 -206.707)" fill="url(#linear-gradient)"/>
        <path id="Path_102581" data-name="Path 102581" d="M549.228,389.9l-90.176-45.1V209.536l90.176,45.1Z" transform="translate(-459.052 -206.548)" fill="#fff"/>
        <path id="Path_102582" data-name="Path 102582" d="M466.594,295.092V220.85l74.242,37.129v74.242Z" transform="translate(-458.627 -205.91)" fill="#d5e5fd"/>
        <g id="Group_20164" data-name="Group 20164" transform="translate(7.61 111.757)">
          <rect id="Rectangle_5685" data-name="Rectangle 5685" width="1.594" height="83.009" transform="translate(0 1.425) rotate(-63.43)" fill="#7ea8c4"/>
          <rect id="Rectangle_5686" data-name="Rectangle 5686" width="1.594" height="83.009" transform="translate(0 5.409) rotate(-63.43)" fill="#7ea8c4"/>
          <rect id="Rectangle_5687" data-name="Rectangle 5687" width="1.594" height="83.009" transform="translate(0 9.392) rotate(-63.43)" fill="#7ea8c4"/>
          <rect id="Rectangle_5688" data-name="Rectangle 5688" width="1.594" height="83.009" transform="translate(0 13.376) rotate(-63.43)" fill="#7ea8c4"/>
          <rect id="Rectangle_5689" data-name="Rectangle 5689" width="1.594" height="56.286" transform="translate(0 17.359) rotate(-63.43)" fill="#7ea8c4"/>
        </g>
        <g id="Group_20165" data-name="Group 20165" transform="translate(18.221 102.431)">
          <path id="Path_102583" data-name="Path 102583" d="M480.764,303.675l1.379,3.484,3.084,1.99L483,310.209l.527,3.335-2.758-2.83-2.758.071.527-2.808-2.231-3.291,3.084,1.094Z" transform="translate(-476.301 -303.675)" fill="#fe6b80"/>
          <path id="Path_102584" data-name="Path 102584" d="M491.368,308.979l1.379,3.484,3.084,1.99-2.231,1.059.527,3.335-2.758-2.83-2.758.071.527-2.808-2.232-3.291,3.084,1.094Z" transform="translate(-475.703 -303.376)" fill="#fe6b80"/>
          <path id="Path_102585" data-name="Path 102585" d="M501.973,314.282l1.379,3.484,3.084,1.99-2.231,1.059.527,3.335-2.758-2.83-2.758.071.527-2.808-2.232-3.291,3.084,1.094Z" transform="translate(-475.106 -303.078)" fill="#bfd5f7"/>
          <path id="Path_102586" data-name="Path 102586" d="M512.578,319.586l1.379,3.484,3.084,1.99-2.231,1.059.527,3.335-2.758-2.83-2.758.071.527-2.808-2.231-3.291,3.084,1.094Z" transform="translate(-474.508 -302.779)" fill="#bfd5f7"/>
          <path id="Path_102587" data-name="Path 102587" d="M523.182,324.889l1.379,3.484,3.084,1.99-2.232,1.059.527,3.335-2.758-2.829-2.758.071.527-2.808L518.72,325.9l3.084,1.094Z" transform="translate(-473.911 -302.48)" fill="#bfd5f7"/>
        </g>
        <g id="Group_20167" data-name="Group 20167" transform="translate(18.024 41.808)">
          <path id="Path_102588" data-name="Path 102588" d="M521.107,299.463c-2.514-2.272-9.77-6.777-12.17-8.647l-11.606-5.8c-2.4-.53-9.566-3.238-12.08-3.48-.126-.013-.25-.022-.375-.03a6.184,6.184,0,0,0-6.771,5.333l-1.99,9.788,54.129,27.071-1.99-11.78a22.646,22.646,0,0,0-6.771-12.1Q521.295,299.633,521.107,299.463Z" transform="translate(-476.114 -244.302)" fill="#44526c"/>
          <path id="Path_102589" data-name="Path 102589" d="M507.936,287.477a32.353,32.353,0,0,1,.511-5.115L496.1,276.185a42.9,42.9,0,0,1,.511,5.63c.04,2.1-1.441,3.164-3.492,2.5-.542-.174-1.111-.36-1.69-.548.662,3.106,5.286,7.566,10.892,10.369s10.219,2.967,10.89.533l-1.771-1.194A7.871,7.871,0,0,1,507.936,287.477Z" transform="translate(-475.251 -244.6)" fill="#f0beb4"/>
          <path id="Path_102590" data-name="Path 102590" d="M502.331,252.648c-6.616-3.31-11.98.138-11.98,7.7,0,3.848,2.307,11.726,3.371,13.923,2.189,4.52,5.13,8.285,8.609,10.026a6.784,6.784,0,0,0,8.61-1.414c1.064-1.132,3.371-6.7,3.371-10.55C514.312,264.77,508.948,255.957,502.331,252.648Z" transform="translate(-475.312 -245.997)" fill="#f0beb4"/>
          <path id="Path_102591" data-name="Path 102591" d="M502.97,276.068l-1.832-.916a1.2,1.2,0,0,1-.637-.956c0-.353.285-.5.637-.319l1.195.6v-5.927c0-.352.285-.494.637-.319a1.2,1.2,0,0,1,.638.956v6.565C503.608,276.1,503.321,276.245,502.97,276.068Z" transform="translate(-474.74 -245.053)" fill="#de816f"/>
          <path id="Path_102592" data-name="Path 102592" d="M487.856,262.152a5.379,5.379,0,0,0,.429,2.418,16.268,16.268,0,0,0,2.4,4.286,4.173,4.173,0,0,0,.849.878c.319.221.688.306.86.118s.1-.621.006-1c-.416-1.718-.533-4.342-1.332-6.052C490.127,260.783,488.057,260.586,487.856,262.152Z" transform="translate(-475.454 -245.45)" fill="#f0beb4"/>
          <path id="Path_102593" data-name="Path 102593" d="M515.863,276.133a3.106,3.106,0,0,1-.429,1.99,4.034,4.034,0,0,1-2.4,1.884,1.411,1.411,0,0,1-.849.029,1.51,1.51,0,0,1-.86-.742,1.271,1.271,0,0,1-.006-1.006c.416-1.3.533-3.807,1.332-4.72C513.592,272.492,515.662,274.366,515.863,276.133Z" transform="translate(-474.136 -244.766)" fill="#f0beb4"/>
          <path id="Path_102594" data-name="Path 102594" d="M499.367,276.2a5.421,5.421,0,0,0,2.456,3.038,1.689,1.689,0,0,0,2.457-.581Z" transform="translate(-474.804 -244.599)" fill="#fff"/>
          <path id="Path_102595" data-name="Path 102595" d="M496.725,264.954c-.749-.375-1.356-.071-1.356.678a2.551,2.551,0,0,0,1.356,2.035c.75.375,1.357.072,1.357-.678A2.552,2.552,0,0,0,496.725,264.954Z" transform="translate(-475.029 -245.242)" fill="#1a1a1a"/>
          <path id="Path_102596" data-name="Path 102596" d="M506.8,269.994c-.749-.375-1.356-.071-1.356.678a2.551,2.551,0,0,0,1.356,2.035c.75.375,1.357.072,1.357-.678A2.552,2.552,0,0,0,506.8,269.994Z" transform="translate(-474.461 -244.958)" fill="#1a1a1a"/>
          <path id="Path_102597" data-name="Path 102597" d="M498.4,264.516l-3.261-1.631a1.2,1.2,0,0,1-.638-.956c0-.352.285-.494.638-.319l3.261,1.631a1.2,1.2,0,0,1,.638.957C499.043,264.55,498.757,264.692,498.4,264.516Z" transform="translate(-475.078 -245.426)" fill="#1a1a1a"/>
          <path id="Path_102598" data-name="Path 102598" d="M508.483,269.556l-3.262-1.631a1.2,1.2,0,0,1-.637-.956c0-.352.285-.494.637-.319l3.262,1.631a1.2,1.2,0,0,1,.637.957C509.12,269.59,508.835,269.732,508.483,269.556Z" transform="translate(-474.51 -245.142)" fill="#1a1a1a"/>
          <path id="Path_102599" data-name="Path 102599" d="M502.416,254.144c8.7,3.018,16.825,15.079,10.536,23a16.533,16.533,0,0,0-2.061-9.5c-3.3-5.49-6.127-6.963-8.475-8.137s-5.173-2.527-8.475-.34c-1.449.959-2.515,4.161-2.061,7.441C485.591,252.394,493.715,248.46,502.416,254.144Z" transform="translate(-475.351 -245.983)" fill="#d46c50"/>
          <path id="Path_102600" data-name="Path 102600" d="M508.338,264.731a18.717,18.717,0,0,1,1.383,4.166c1.125.4,2.218.752,3.273,1.047a15.572,15.572,0,0,0-1.278-4.962,27.952,27.952,0,0,1,2.681,5.327c.974.237,1.913.429,2.808.568-1.3-7.727-5.372-15.262-11.038-18.1l-7.3-3.648c-5.666-2.834-9.738.627-11.039,7.055,1.128.951,2.324,1.892,3.575,2.813a15.851,15.851,0,0,1,1.982-2.525,16.472,16.472,0,0,0-.779,3.392q.786.555,1.6,1.1a15.226,15.226,0,0,1,1.253-2.818,20.3,20.3,0,0,0-.134,3.552q1.756,1.13,3.608,2.183a5.158,5.158,0,0,1,2.657-4.046,8.381,8.381,0,0,0-.157,5.408q.539.28,1.083.554c2.1,1.049,4.134,1.943,6.086,2.685A11.3,11.3,0,0,0,508.338,264.731Z" transform="translate(-475.454 -246.181)" fill="#e1856c"/>
          <path id="Path_102601" data-name="Path 102601" d="M501.195,248.9a7.465,7.465,0,0,0,.874,3.493,3.378,3.378,0,0,0,.874-2.62,7.465,7.465,0,0,0-.874-3.493A3.378,3.378,0,0,0,501.195,248.9Z" transform="translate(-474.701 -246.285)" fill="#e1856c"/>
          <path id="Path_102602" data-name="Path 102602" d="M500.383,249.778a8.135,8.135,0,0,0,1.766,2.574,5.442,5.442,0,0,0-.605-2.673,8.136,8.136,0,0,0-1.767-2.574A5.444,5.444,0,0,0,500.383,249.778Z" transform="translate(-474.782 -246.239)" fill="#e1856c"/>
          <g id="Group_20166" data-name="Group 20166" transform="translate(14.705 16.778)">
            <path id="Path_102603" data-name="Path 102603" d="M496.935,271.594c-2.655-1.327-4.814-4.567-4.814-7.22v-.661c0-1.377,1.121-1.938,2.5-1.249l4.631,2.316a4.7,4.7,0,0,1,2.5,3.747v.661C501.747,271.842,499.588,272.921,496.935,271.594Zm-2.315-7.856c-.675-.337-1.223-.062-1.223.612v.661a6.667,6.667,0,0,0,3.539,5.308c1.951.976,3.539.183,3.539-1.768v-.662a2.3,2.3,0,0,0-1.223-1.834Z" transform="translate(-489.917 -262.169)" fill="#208bb5"/>
            <path id="Path_102604" data-name="Path 102604" d="M507.049,276.652c-2.655-1.327-4.814-4.565-4.814-7.22v-.661c0-1.377,1.121-1.937,2.5-1.249l4.631,2.315a4.706,4.706,0,0,1,2.5,3.747v.662C511.862,276.9,509.7,277.979,507.049,276.652Zm-2.315-7.856c-.674-.337-1.223-.062-1.223.612v.661a6.669,6.669,0,0,0,3.539,5.309c1.951.975,3.539.182,3.539-1.769v-.661a2.3,2.3,0,0,0-1.223-1.835Z" transform="translate(-489.348 -261.884)" fill="#208bb5"/>
            <path id="Path_102605" data-name="Path 102605" d="M503,270.075a1.234,1.234,0,0,1-.63-.854,2.065,2.065,0,0,0-1.072-.536c-.048.281-.312.382-.63.224a1.2,1.2,0,0,1-.637-.957c0-.75.742-.9,1.8-.372a2.917,2.917,0,0,1,1.8,2.176C503.634,270.109,503.348,270.251,503,270.075Z" transform="translate(-489.472 -261.881)" fill="#208bb5"/>
            <path id="Path_102606" data-name="Path 102606" d="M492.681,264.6l-2.008-1a1.2,1.2,0,0,1-.638-.956c0-.352.286-.494.638-.318l2.008,1a1.2,1.2,0,0,1,.638.957C493.319,264.633,493.033,264.776,492.681,264.6Z" transform="translate(-490.035 -262.164)" fill="#208bb5"/>
            <path id="Path_102607" data-name="Path 102607" d="M512.859,274.691l-2.008-1a1.2,1.2,0,0,1-.638-.956c0-.352.285-.494.638-.318l2.008,1a1.2,1.2,0,0,1,.638.956C513.5,274.724,513.212,274.867,512.859,274.691Z" transform="translate(-488.898 -261.596)" fill="#208bb5"/>
          </g>
        </g>
      </g>
    </g>
    <g id="Group_20170" data-name="Group 20170" transform="translate(338.66 299.589)">
      <path id="Path_102608" data-name="Path 102608" d="M433.631,425.955l-29.026-43.542,6.732-3.365,29.026,43.542Z" transform="translate(-317.564 -283.915)" fill="url(#linear-gradient)"/>
      <path id="Path_102609" data-name="Path 102609" d="M482.123,506.75l-53.992-80.994c-4.092-6.138-4.092-12.772,0-14.818s10.725,1.273,14.817,7.411l53.992,80.994c4.092,6.138,4.092,12.772,0,14.817S486.216,512.889,482.123,506.75Z" transform="translate(-316.412 -282.152)" fill="#549ffe"/>
      <path id="Path_102610" data-name="Path 102610" d="M428.06,335.226c-17.918-26.879-46.967-41.406-64.885-32.45l-10.563,5.283,3.172.7c-10.03,12.508-7.573,36.461,7.391,58.908,15.19,22.787,38.379,36.69,56.006,34.94l-1.036,2.488,9.912-4.976.119-.059C445.975,391.029,445.941,362.047,428.06,335.226Z" transform="translate(-320.655 -288.361)" fill="url(#linear-gradient)"/>
      <ellipse id="Ellipse_612" data-name="Ellipse 612" cx="35.821" cy="58.766" rx="35.821" ry="58.766" transform="translate(0 44.088) rotate(-37.98)" fill="#549ffe"/>
      <ellipse id="Ellipse_613" data-name="Ellipse 613" cx="29.016" cy="47.603" rx="29.016" ry="47.603" transform="translate(12.233 48.7) rotate(-37.981)" fill="url(#linear-gradient-12)"/>
    </g>
    <g id="Group_20173" data-name="Group 20173" transform="translate(220.545 252.469)">
      <path id="Path_102611" data-name="Path 102611" d="M230.4,468.2a2.709,2.709,0,0,1,1.692-2.253l11.232-3.435a1.351,1.351,0,0,1,1.071,2.459l-9.236,6.124c-1.525.939-4.566,1.221-4.566.117Z" transform="translate(-209.264 -232.095)" fill="#4c4e6e"/>
      <path id="Path_102612" data-name="Path 102612" d="M241.989,480.261l14.373-3.708a1.351,1.351,0,0,0-.346-2.66l-15.3.093a1.351,1.351,0,0,0-1.3,1.689l.933,3.615A1.35,1.35,0,0,0,241.989,480.261Z" transform="translate(-208.759 -231.451)" fill="#4c4e6e"/>
      <path id="Path_102613" data-name="Path 102613" d="M245.194,264.341c.432,2.094-4.706,5.17-8.738,3.622l-4.859-3.23-4.7-10.155,3.618-7.843,11.987.736Z" transform="translate(-209.461 -244.249)" fill="#f4acc8"/>
      <path id="Path_102614" data-name="Path 102614" d="M237.826,265.7l1.65,13.664-10.979-.809,1.484-16.7Z" transform="translate(-209.372 -243.397)" fill="#f4acc8"/>
      <path id="Path_102615" data-name="Path 102615" d="M239.085,402.294l-4.308,67.814c-.208,2.039-3.605,3.081-3.956,1.1-4.57-28.108-8.631-52.549-7.787-72.657Z" transform="translate(-209.686 -235.696)" fill="#f4acc8"/>
      <g id="Group_20171" data-name="Group 20171" transform="translate(0 31.362)">
        <path id="Path_102616" data-name="Path 102616" d="M231.735,277.264l-12.652-3.193c-3.968,13.842-8.67,39.62-8.67,39.62-.557,12.346,9.8,37.319,15.86,44.424l3.574-1.189-9.841-42.077Z" transform="translate(-210.392 -274.071)" fill="#78dede"/>
        <path id="Path_102617" data-name="Path 102617" d="M229,352.507l3.989,5.191,4.229,2.675-2.36,1.329a4.351,4.351,0,0,1-4.423-.09l-2.412-1.489-2.6-6.426Z" transform="translate(-209.545 -269.652)" fill="#f4acc8"/>
      </g>
      <path id="Path_102618" data-name="Path 102618" d="M223.33,403.443c-2.836-20.24-6.266-43.883-3.108-62.034l24.737,1.952-5.954,65.485-1.415,4.664Z" transform="translate(-209.909 -238.915)" fill="#f4acc8"/>
      <path id="Path_102619" data-name="Path 102619" d="M265.485,406.972l-22.015,72.31c-.659,1.941-4.2,2.2-4.1.183,1.833-28.419,2.757-61.837,10.631-80.551Z" transform="translate(-208.759 -235.676)" fill="#f4acc8"/>
      <path id="Path_102620" data-name="Path 102620" d="M221.012,399.082c-.005-17.519-10.868-49.324-3.915-66.78l41.513,6.069c7.046,15.172,8.272,41.015,8.972,67.827l-.711,4.527C246.171,409.317,224.873,408.183,221.012,399.082Z" transform="translate(-210.145 -239.429)" fill="#4c4e6e"/>
      <g id="Group_20172" data-name="Group 20172" transform="translate(6.952 19.847)">
        <path id="Path_102621" data-name="Path 102621" d="M324.883,275.093l-38.966,16.961-35.075-10.371c-11.489-7.8-23.528-11.03-32.13-7.537-3.416,5.123,4.176,33.058,8.492,45.327l-10.232,16.185c.881,8.475,37.889,16.143,42.049,7.269l-2.607-23.481-.569-24.358c13.388,3.614,30,6.9,30,6.9,12.245-1.672,34.949-16.348,40.849-23.59Z" transform="translate(-216.973 -262.631)" fill="#80ebeb"/>
        <path id="Path_102622" data-name="Path 102622" d="M321.062,278.933l1.082-1.35a4.235,4.235,0,0,0,1.532-5.367l-1.088-2.3,2.886-5.313-.674-1.427-7.326,8.686L317,276.613Z" transform="translate(-211.338 -263.17)" fill="#f4acc8"/>
      </g>
      <path id="Path_102623" data-name="Path 102623" d="M217.268,275.711l4.875-3.776a5.574,5.574,0,0,0,1.983-5.8l-.649-2.5a5.572,5.572,0,0,1,.907-4.7l.621-.844a5.566,5.566,0,0,1,1.587-1.422,6.169,6.169,0,0,1,.686-4.6l2.456-4.091a6.187,6.187,0,0,1,5.3-3H243.1l2.986-.578-1.637,2.986-3.305,4.722c-2.3,3.983.889,22.653.889,22.653a7.349,7.349,0,0,0,.645,3.043,5.574,5.574,0,0,1-1.779,7.39,15.373,15.373,0,0,1-9.73,2.5l-9.249-.752a7.56,7.56,0,0,1-6.42-4.764A5.573,5.573,0,0,1,217.268,275.711Z" transform="translate(-210.126 -244.382)" fill="#37384f"/>
    </g>
    <g id="Group_20177" data-name="Group 20177" transform="translate(79.893 270.55)">
      <g id="Group_20174" data-name="Group 20174" transform="translate(9.355 28.745)">
        <path id="Path_102624" data-name="Path 102624" d="M131.264,299.726l.653-1.132,55.344,32.03-.653,1.132Z" transform="translate(-83.553 -288.154)" fill="#00cdff"/>
        <path id="Path_102625" data-name="Path 102625" d="M150.091,345.518l-7.313,12.666L87.327,326.092a4.011,4.011,0,0,1-1.229-3.209,11.553,11.553,0,0,1,5.227-9.053l43.348-25.119,55.133,31.908Z" transform="translate(-86.098 -288.711)" fill="#007fbd"/>
        <path id="Path_102626" data-name="Path 102626" d="M143.448,345.4a8.676,8.676,0,0,0-3.92,6.79c0,2.5,1.758,3.511,3.92,2.263l42.04-24.363-.653-.377v-8.3Z" transform="translate(-83.088 -286.868)" fill="#00cdff"/>
        <path id="Path_102627" data-name="Path 102627" d="M142.829,345.066a8.679,8.679,0,0,0-3.92,6.79c0,2.5,1.759,3.511,3.92,2.263l42.041-24.363V320.7Z" transform="translate(-83.123 -286.909)" fill="#d9e8ff"/>
        <path id="Path_102628" data-name="Path 102628" d="M144.117,345.2c-2.492,1.439-4.519,4.639-4.519,7.136s2.027,3.356,4.519,1.917l42.748-24.772v1.508l-43.347,25.119c-2.887,1.667-5.227.316-5.227-3.018a11.553,11.553,0,0,1,5.227-9.053l43.347-25.119v1.508Z" transform="translate(-83.157 -287.009)" fill="#007fbd"/>
      </g>
      <g id="Group_20175" data-name="Group 20175" transform="translate(0 11.365)">
        <path id="Path_102629" data-name="Path 102629" d="M132.375,330,87.7,304.125,77.242,310.16v-1.508l1.307-.754v-9.054l-1.307.755v-1.51l43.347-25.119a3.9,3.9,0,0,1,3.364-.524c.03-.016,55.411,32.036,55.411,32.036Z" transform="translate(-77.242 -272.258)" fill="#725598"/>
        <path id="Path_102630" data-name="Path 102630" d="M78.479,297.425v9.053l55.133,31.908v-9.053Z" transform="translate(-77.172 -270.84)" fill="#c7d8f2"/>
        <path id="Path_102631" data-name="Path 102631" d="M77.242,296.711v1.51l55.133,31.907v-1.508Zm55.133,42.47L77.242,307.273v1.508l55.133,31.908Z" transform="translate(-77.242 -270.88)" fill="#513c6b"/>
        <path id="Path_102632" data-name="Path 102632" d="M77.242,306.75,78.548,306,133.682,337.9l-1.307.754Z" transform="translate(-77.242 -270.357)" fill="#725598"/>
        <path id="Path_102633" data-name="Path 102633" d="M172.76,313.648a8.679,8.679,0,0,0,3.92-6.79c0-2.5-1.759-3.511-3.92-2.263L129.817,329.48v8l.9.528Z" transform="translate(-74.28 -270.466)" fill="#d9e8ff"/>
        <path id="Path_102634" data-name="Path 102634" d="M171.846,313.086a8.675,8.675,0,0,0,3.92-6.789,3.1,3.1,0,0,0-.731-2.2c1,.247,1.646,1.216,1.646,2.733a8.676,8.676,0,0,1-3.92,6.789l-42.041,24.365-.905-.523.905-.533Z" transform="translate(-74.28 -270.464)" fill="#725598"/>
        <path id="Path_102635" data-name="Path 102635" d="M172.182,314.084c2.492-1.439,4.52-4.639,4.52-7.136s-2.028-3.356-4.52-1.917L129.434,329.8v-1.51l43.348-25.119c2.886-1.666,5.227-.315,5.227,3.018a11.553,11.553,0,0,1-5.227,9.053l-43.348,25.119v-1.508Z" transform="translate(-74.301 -270.556)" fill="#694e8c"/>
      </g>
      <g id="Group_20176" data-name="Group 20176" transform="translate(17.736)">
        <path id="Path_102636" data-name="Path 102636" d="M132.3,313.233l44.68-25.872,10.454,6.035v-1.508l-1.307-.754v-9.053l1.307.754v-1.508l-33.127-19.115a3.9,3.9,0,0,0-3.364-.525c-.03-.016-55.412,32.036-55.412,32.036Z" transform="translate(-93.948 -261.499)" fill="#fdfef8"/>
        <path id="Path_102637" data-name="Path 102637" d="M184.236,280.983v9.053L129.1,321.943V312.89Z" transform="translate(-92.056 -260.401)" fill="#b7cae7"/>
        <path id="Path_102638" data-name="Path 102638" d="M185.473,280.268v1.509L130.34,313.685v-1.509Z" transform="translate(-91.986 -260.441)" fill="#b3bbc9"/>
        <path id="Path_102639" data-name="Path 102639" d="M185.473,290.267v1.509L130.34,323.684v-1.509Z" transform="translate(-91.986 -259.878)" fill="#b3bbc9"/>
        <path id="Path_102640" data-name="Path 102640" d="M185.543,290.307l-1.307-.754L129.1,321.461l1.307.754Z" transform="translate(-92.056 -259.918)" fill="#fdfef8"/>
        <path id="Path_102641" data-name="Path 102641" d="M99.189,302.889a8.676,8.676,0,0,1-3.92-6.789c0-2.5,1.759-3.511,3.92-2.264l32.722,18.881v8l-.9.529Z" transform="translate(-93.962 -259.707)" fill="#95a8c4"/>
        <path id="Path_102642" data-name="Path 102642" d="M100.1,302.358a8.676,8.676,0,0,1-3.92-6.789,3.1,3.1,0,0,1,.731-2.2c-1,.247-1.646,1.216-1.646,2.733a8.676,8.676,0,0,0,3.92,6.789l31.82,18.36.905-.523-.905-.533Z" transform="translate(-93.962 -259.703)" fill="#fdfef8"/>
        <path id="Path_102643" data-name="Path 102643" d="M99.859,303.326c-2.492-1.439-4.52-4.639-4.52-7.136s2.028-3.356,4.52-1.917l32.527,18.768v-1.51L99.259,292.418c-2.886-1.667-5.227-.316-5.227,3.018a11.553,11.553,0,0,0,5.227,9.053L132.386,323.6v-1.508Z" transform="translate(-94.032 -259.797)" fill="#7b92b5"/>
      </g>
    </g>
    <g id="Group_20179" data-name="Group 20179" transform="translate(30.178 402.318)">
      <path id="Path_102644" data-name="Path 102644" d="M63.716,411.766l63.776,36.823,33.026-19.069c3.2-1.848,3.2-4.843,0-6.691L108.332,392.7a12.809,12.809,0,0,0-11.589,0Z" transform="translate(-28.289 -385.953)" fill="#3d5c87"/>
      <path id="Path_102645" data-name="Path 102645" d="M65.606,410.675,129.381,447.5,96.355,466.566a12.809,12.809,0,0,1-11.589,0L32.578,436.435c-3.2-1.848-3.2-4.843,0-6.691Z" transform="translate(-30.178 -384.862)" fill="#3d5c87"/>
      <g id="Group_20178" data-name="Group 20178" transform="translate(0 3.863)">
        <path id="Path_102646" data-name="Path 102646" d="M63.716,410.35l63.776,36.822L160.518,428.1c3.2-1.848,3.2-4.844,0-6.692l-52.186-30.13a12.8,12.8,0,0,0-11.589,0Z" transform="translate(-28.289 -389.895)" fill="#5580bd"/>
        <path id="Path_102647" data-name="Path 102647" d="M65.606,409.259l63.776,36.822L96.355,465.149a12.8,12.8,0,0,1-11.589,0l-52.187-30.13c-3.2-1.848-3.2-4.843,0-6.692Z" transform="translate(-30.178 -388.805)" fill="#5580bd"/>
      </g>
      <path id="Path_102648" data-name="Path 102648" d="M123.46,437.061c15.355-.979,25.783-9.544,36.129-18.237l-54.5-32.585c-13.724,9.548-23.554,5.634-36.129,18.237Z" transform="translate(-27.993 -386.239)" fill="#fdfef8"/>
      <path id="Path_102649" data-name="Path 102649" d="M120.447,442.631l36.159-20.144.082-5.4c-13.723,9.549-23.554,5.635-36.129,18.237Z" transform="translate(-25.092 -384.501)" fill="#b7cae7"/>
      <path id="Path_102650" data-name="Path 102650" d="M156.688,417.086l-.082,5.4-36.159,20.144.112-7.309C133.134,422.721,142.965,426.635,156.688,417.086Z" transform="translate(-25.092 -384.501)" fill="#b7cae7"/>
      <path id="Path_102651" data-name="Path 102651" d="M122.376,441.659,86.217,461.8l.083-5.4c13.665-5.711,23.785-20.74,36.187-22.053Z" transform="translate(-27.021 -383.528)" fill="#b7cae7"/>
      <path id="Path_102652" data-name="Path 102652" d="M34.7,425.556c13.665-5.711,23.786-20.74,36.188-22.053l54.5,32.585c-12.4,1.313-22.522,16.343-36.187,22.053Z" transform="translate(-29.923 -385.266)" fill="#fdfef8"/>
      <path id="Path_102653" data-name="Path 102653" d="M34.709,424.38l-.083,5.4,54.5,32.585.082-5.4Z" transform="translate(-29.928 -384.09)" fill="#95a8c4"/>
    </g>
    <g id="Group_20180" data-name="Group 20180" transform="translate(572.296 477.957)">
      <path id="Path_102654" data-name="Path 102654" d="M580.295,495.541V465.989H550.711v29.584c0,2.186,1.444,4.371,4.333,6.039,5.777,3.336,15.144,3.336,20.921,0C578.867,499.937,580.309,497.737,580.295,495.541Z" transform="translate(-542.969 -457.385)" fill="#dbedf4"/>
      <ellipse id="Ellipse_614" data-name="Ellipse 614" cx="14.793" cy="8.541" rx="14.793" ry="8.541" transform="translate(7.742)" fill="#fff"/>
      <path id="Path_102655" data-name="Path 102655" d="M574.986,460.831c5.275,3.045,5.275,7.983,0,11.028s-13.826,3.045-19.1,0-5.274-7.983,0-11.028S569.711,457.785,574.986,460.831Z" transform="translate(-542.901 -457.804)" fill="#dbedf4"/>
      <path id="Path_102656" data-name="Path 102656" d="M574.933,466.386c-5.274-3.045-13.826-3.045-19.1,0a9.148,9.148,0,0,0-2.967,2.581,9.146,9.146,0,0,0,2.967,2.58c5.274,3.045,13.826,3.045,19.1,0a9.146,9.146,0,0,0,2.967-2.58A9.148,9.148,0,0,0,574.933,466.386Z" transform="translate(-542.848 -457.491)" fill="#70504c"/>
      <path id="Path_102657" data-name="Path 102657" d="M553,494.165a9.617,9.617,0,1,1,0-19.235,2.406,2.406,0,1,1,0,4.813,4.8,4.8,0,0,0,0,9.608,2.407,2.407,0,0,1,0,4.814Z" transform="translate(-543.382 -456.881)" fill="#dbedf4"/>
    </g>
  </g>
</svg>
