<?xml version="1.0" standalone="no"?><svg xmlns="http://www.w3.org/2000/svg" viewBox="0 0 1440 320" speechify-initial-font-family="GTWalsheim, system-ui, sans-serif" speechify-initial-font-size="16px"><path fill=" #9b4279" fill-opacity="1" d="M0,64L6.2,80C12.3,96,25,128,37,144C49.2,160,62,160,74,186.7C86.2,213,98,267,111,288C123.1,309,135,299,148,282.7C160,267,172,245,185,229.3C196.9,213,209,203,222,208C233.8,213,246,235,258,208C270.8,181,283,107,295,69.3C307.7,32,320,32,332,37.3C344.6,43,357,53,369,74.7C381.5,96,394,128,406,165.3C418.5,203,431,245,443,224C455.4,203,468,117,480,112C492.3,107,505,181,517,186.7C529.2,192,542,128,554,90.7C566.2,53,578,43,591,58.7C603.1,75,615,117,628,160C640,203,652,245,665,234.7C676.9,224,689,160,702,128C713.8,96,726,96,738,106.7C750.8,117,763,139,775,133.3C787.7,128,800,96,812,112C824.6,128,837,192,849,213.3C861.5,235,874,213,886,218.7C898.5,224,911,256,923,261.3C935.4,267,948,245,960,229.3C972.3,213,985,203,997,213.3C1009.2,224,1022,256,1034,250.7C1046.2,245,1058,203,1071,208C1083.1,213,1095,267,1108,293.3C1120,320,1132,320,1145,288C1156.9,256,1169,192,1182,160C1193.8,128,1206,128,1218,122.7C1230.8,117,1243,107,1255,133.3C1267.7,160,1280,224,1292,229.3C1304.6,235,1317,181,1329,170.7C1341.5,160,1354,192,1366,218.7C1378.5,245,1391,267,1403,234.7C1415.4,203,1428,117,1434,74.7L1440,32L1440,320L1433.8,320C1427.7,320,1415,320,1403,320C1390.8,320,1378,320,1366,320C1353.8,320,1342,320,1329,320C1316.9,320,1305,320,1292,320C1280,320,1268,320,1255,320C1243.1,320,1231,320,1218,320C1206.2,320,1194,320,1182,320C1169.2,320,1157,320,1145,320C1132.3,320,1120,320,1108,320C1095.4,320,1083,320,1071,320C1058.5,320,1046,320,1034,320C1021.5,320,1009,320,997,320C984.6,320,972,320,960,320C947.7,320,935,320,923,320C910.8,320,898,320,886,320C873.8,320,862,320,849,320C836.9,320,825,320,812,320C800,320,788,320,775,320C763.1,320,751,320,738,320C726.2,320,714,320,702,320C689.2,320,677,320,665,320C652.3,320,640,320,628,320C615.4,320,603,320,591,320C578.5,320,566,320,554,320C541.5,320,529,320,517,320C504.6,320,492,320,480,320C467.7,320,455,320,443,320C430.8,320,418,320,406,320C393.8,320,382,320,369,320C356.9,320,345,320,332,320C320,320,308,320,295,320C283.1,320,271,320,258,320C246.2,320,234,320,222,320C209.2,320,197,320,185,320C172.3,320,160,320,148,320C135.4,320,123,320,111,320C98.5,320,86,320,74,320C61.5,320,49,320,37,320C24.6,320,12,320,6,320L0,320Z" speechify-initial-font-family="GTWalsheim, system-ui, sans-serif" speechify-initial-font-size="16px"></path></svg>